<mxfile host="65bd71144e" scale="3" border="0">
    <diagram name="Page-1" id="WFdnbx_n8Auvqi-mJNQ4">
        <mxGraphModel dx="581" dy="486" grid="1" gridSize="10" guides="1" tooltips="1" connect="1" arrows="1" fold="1" page="1" pageScale="1" pageWidth="1169" pageHeight="827" math="1" shadow="0">
            <root>
                <mxCell id="0"/>
                <mxCell id="1" parent="0"/>
                <mxCell id="6ATX4UVvStKmriRk2Kmt-1" value="&lt;div style=&quot;text-align: left;&quot;&gt;Conv1d( \(3, 16, 3 \times 3\) )&lt;br&gt;&lt;/div&gt;" style="rounded=0;whiteSpace=wrap;html=1;fillColor=#0050ef;fontColor=#ffffff;strokeColor=#001DBC;" parent="1" vertex="1">
                    <mxGeometry x="140" y="30" width="130" height="30" as="geometry"/>
                </mxCell>
                <mxCell id="6ATX4UVvStKmriRk2Kmt-2" value="Batch normalization" style="rounded=0;whiteSpace=wrap;html=1;fillColor=#a0522d;fontColor=#ffffff;strokeColor=#6D1F00;" parent="1" vertex="1">
                    <mxGeometry x="140" y="60" width="130" height="20" as="geometry"/>
                </mxCell>
                <mxCell id="41" value="\(16 \times 32\)" style="edgeStyle=none;html=1;exitX=0.5;exitY=1;exitDx=0;exitDy=0;entryX=0.5;entryY=0;entryDx=0;entryDy=0;" parent="1" source="6ATX4UVvStKmriRk2Kmt-3" target="3" edge="1">
                    <mxGeometry relative="1" as="geometry">
                        <Array as="points"/>
                    </mxGeometry>
                </mxCell>
                <mxCell id="6ATX4UVvStKmriRk2Kmt-3" value="Relu" style="rounded=0;whiteSpace=wrap;html=1;fillColor=#6d8764;fontColor=#ffffff;strokeColor=#3A5431;" parent="1" vertex="1">
                    <mxGeometry x="140" y="80" width="130" height="20" as="geometry"/>
                </mxCell>
                <mxCell id="42" style="edgeStyle=none;html=1;exitX=0.5;exitY=1;exitDx=0;exitDy=0;entryX=0.5;entryY=0;entryDx=0;entryDy=0;" parent="1" source="3" target="4" edge="1">
                    <mxGeometry relative="1" as="geometry"/>
                </mxCell>
                <mxCell id="3" value="Block 16" style="rounded=0;whiteSpace=wrap;html=1;fillColor=#a20025;fontColor=#ffffff;strokeColor=#6F0000;strokeWidth=3;" parent="1" vertex="1">
                    <mxGeometry x="145" y="130" width="120" height="30" as="geometry"/>
                </mxCell>
                <mxCell id="43" style="edgeStyle=none;html=1;exitX=0.5;exitY=1;exitDx=0;exitDy=0;entryX=0.5;entryY=0;entryDx=0;entryDy=0;" parent="1" source="4" target="5" edge="1">
                    <mxGeometry relative="1" as="geometry"/>
                </mxCell>
                <mxCell id="4" value="Block 16" style="rounded=0;whiteSpace=wrap;html=1;fillColor=#a20025;fontColor=#ffffff;strokeColor=#6F0000;strokeWidth=3;" parent="1" vertex="1">
                    <mxGeometry x="145" y="170" width="120" height="30" as="geometry"/>
                </mxCell>
                <mxCell id="5" value="Block 16" style="rounded=0;whiteSpace=wrap;html=1;fillColor=#a20025;fontColor=#ffffff;strokeColor=#6F0000;strokeWidth=3;" parent="1" vertex="1">
                    <mxGeometry x="145" y="210" width="120" height="30" as="geometry"/>
                </mxCell>
                <mxCell id="47" style="edgeStyle=none;html=1;exitX=0.5;exitY=1;exitDx=0;exitDy=0;entryX=0.5;entryY=0;entryDx=0;entryDy=0;" parent="1" source="33" target="34" edge="1">
                    <mxGeometry relative="1" as="geometry"/>
                </mxCell>
                <mxCell id="33" value="Block 16 -&amp;gt; 32" style="rounded=0;whiteSpace=wrap;html=1;fillColor=#a20025;fontColor=#ffffff;strokeColor=#6F0000;strokeWidth=3;" parent="1" vertex="1">
                    <mxGeometry x="330" y="130" width="120" height="30" as="geometry"/>
                </mxCell>
                <mxCell id="48" style="edgeStyle=none;html=1;exitX=0.5;exitY=1;exitDx=0;exitDy=0;entryX=0.5;entryY=0;entryDx=0;entryDy=0;" parent="1" source="34" target="35" edge="1">
                    <mxGeometry relative="1" as="geometry"/>
                </mxCell>
                <mxCell id="34" value="Block 32" style="rounded=0;whiteSpace=wrap;html=1;fillColor=#a20025;fontColor=#ffffff;strokeColor=#6F0000;strokeWidth=3;" parent="1" vertex="1">
                    <mxGeometry x="330" y="170" width="120" height="30" as="geometry"/>
                </mxCell>
                <mxCell id="35" value="Block 32" style="rounded=0;whiteSpace=wrap;html=1;fillColor=#a20025;fontColor=#ffffff;strokeColor=#6F0000;strokeWidth=3;" parent="1" vertex="1">
                    <mxGeometry x="330" y="210" width="120" height="30" as="geometry"/>
                </mxCell>
                <mxCell id="50" style="edgeStyle=none;html=1;exitX=0.5;exitY=1;exitDx=0;exitDy=0;entryX=0.5;entryY=0;entryDx=0;entryDy=0;" parent="1" source="36" target="37" edge="1">
                    <mxGeometry relative="1" as="geometry"/>
                </mxCell>
                <mxCell id="36" value="Block 32 -&amp;gt; 64" style="rounded=0;whiteSpace=wrap;html=1;fillColor=#a20025;fontColor=#ffffff;strokeColor=#6F0000;strokeWidth=3;" parent="1" vertex="1">
                    <mxGeometry x="510" y="130" width="120" height="30" as="geometry"/>
                </mxCell>
                <mxCell id="51" style="edgeStyle=none;html=1;exitX=0.5;exitY=1;exitDx=0;exitDy=0;entryX=0.5;entryY=0;entryDx=0;entryDy=0;" parent="1" source="37" target="38" edge="1">
                    <mxGeometry relative="1" as="geometry"/>
                </mxCell>
                <mxCell id="37" value="Block 64" style="rounded=0;whiteSpace=wrap;html=1;fillColor=#a20025;fontColor=#ffffff;strokeColor=#6F0000;strokeWidth=3;" parent="1" vertex="1">
                    <mxGeometry x="510" y="170" width="120" height="30" as="geometry"/>
                </mxCell>
                <mxCell id="38" value="Block 64" style="rounded=0;whiteSpace=wrap;html=1;fillColor=#a20025;fontColor=#ffffff;strokeColor=#6F0000;strokeWidth=3;" parent="1" vertex="1">
                    <mxGeometry x="510" y="210" width="120" height="30" as="geometry"/>
                </mxCell>
                <mxCell id="64" value="\(64 \times 32 \)" style="endArrow=classic;html=1;exitX=0.5;exitY=1;exitDx=0;exitDy=0;entryX=1;entryY=0.5;entryDx=0;entryDy=0;" parent="1" source="38" target="65" edge="1">
                    <mxGeometry width="50" height="50" relative="1" as="geometry">
                        <mxPoint x="425" y="310" as="sourcePoint"/>
                        <mxPoint x="545" y="280" as="targetPoint"/>
                        <Array as="points">
                            <mxPoint x="570" y="295"/>
                        </Array>
                    </mxGeometry>
                </mxCell>
                <mxCell id="65" value="avgPooling(kernel = 1)&lt;br&gt;i.e.&amp;nbsp; no pooling" style="ellipse;whiteSpace=wrap;html=1;strokeWidth=3;fillColor=#e3c800;fontColor=#000000;strokeColor=#B09500;" parent="1" vertex="1">
                    <mxGeometry x="130" y="270" width="135" height="50" as="geometry"/>
                </mxCell>
                <mxCell id="tW-Vj2c7528DObAtOV8Z-78" style="edgeStyle=none;html=1;exitX=1;exitY=0.5;exitDx=0;exitDy=0;entryX=0;entryY=0.5;entryDx=0;entryDy=0;" parent="1" source="70" target="tW-Vj2c7528DObAtOV8Z-77" edge="1">
                    <mxGeometry relative="1" as="geometry"/>
                </mxCell>
                <mxCell id="70" value="Flatten()" style="rounded=1;whiteSpace=wrap;html=1;fillColor=#6a00ff;fontColor=#ffffff;strokeColor=#3700CC;" parent="1" vertex="1">
                    <mxGeometry x="145" y="370" width="120" height="30" as="geometry"/>
                </mxCell>
                <mxCell id="72" value="\(16 \times 32\)" style="edgeStyle=none;html=1;exitX=1;exitY=0.5;exitDx=0;exitDy=0;entryX=0;entryY=0.5;entryDx=0;entryDy=0;" parent="1" target="33" edge="1">
                    <mxGeometry relative="1" as="geometry">
                        <Array as="points">
                            <mxPoint x="295" y="225"/>
                            <mxPoint x="295" y="145"/>
                        </Array>
                        <mxPoint x="265" y="225" as="sourcePoint"/>
                        <mxPoint x="335" y="170" as="targetPoint"/>
                    </mxGeometry>
                </mxCell>
                <mxCell id="74" value="\(32 \times 32\)" style="edgeStyle=none;html=1;exitX=1;exitY=0.5;exitDx=0;exitDy=0;entryX=0;entryY=0.5;entryDx=0;entryDy=0;" parent="1" edge="1">
                    <mxGeometry relative="1" as="geometry">
                        <Array as="points">
                            <mxPoint x="480" y="225"/>
                            <mxPoint x="480" y="145"/>
                        </Array>
                        <mxPoint x="450" y="225" as="sourcePoint"/>
                        <mxPoint x="500" y="145" as="targetPoint"/>
                    </mxGeometry>
                </mxCell>
                <mxCell id="77" value="" style="edgeStyle=none;html=1;entryX=0;entryY=0.5;entryDx=0;entryDy=0;" parent="1" source="76" target="6ATX4UVvStKmriRk2Kmt-1" edge="1">
                    <mxGeometry relative="1" as="geometry"/>
                </mxCell>
                <mxCell id="76" value="\(3 \times 32 \)" style="rounded=0;whiteSpace=wrap;html=1;" parent="1" vertex="1">
                    <mxGeometry x="50" y="30" width="60" height="30" as="geometry"/>
                </mxCell>
                <mxCell id="tW-Vj2c7528DObAtOV8Z-77" value="&lt;span style=&quot;font-size: 11px;&quot;&gt;1024&lt;/span&gt;" style="rounded=0;whiteSpace=wrap;html=1;" parent="1" vertex="1">
                    <mxGeometry x="300" y="372.5" width="50" height="25" as="geometry"/>
                </mxCell>
                <mxCell id="78" value="&lt;span style=&quot;&quot;&gt;\(floor(64/\text{poolingkernel size}) \times 32 \)=64 x 32&lt;/span&gt;" style="edgeStyle=none;html=1;entryX=0.435;entryY=0.037;entryDx=0;entryDy=0;entryPerimeter=0;exitX=0.5;exitY=1;exitDx=0;exitDy=0;" parent="1" source="65" target="70" edge="1">
                    <mxGeometry x="-0.2174" y="13" relative="1" as="geometry">
                        <Array as="points"/>
                        <mxPoint x="197" y="330" as="sourcePoint"/>
                        <mxPoint x="240" y="240" as="targetPoint"/>
                        <mxPoint as="offset"/>
                    </mxGeometry>
                </mxCell>
            </root>
        </mxGraphModel>
    </diagram>
</mxfile>